<svg width="1000" height="381" viewBox="0 0 1000 381" fill="none" xmlns="http://www.w3.org/2000/svg">
<rect width="1000" height="381" fill="url(#paint0_linear)"/>
<path fill-rule="evenodd" clip-rule="evenodd" d="M467.784 158.5C462.642 158.5 456.54 159.59 449.873 167.32V145.687C449.873 140.222 445.437 135.777 439.985 135.777C434.532 135.777 430.097 140.222 430.097 145.687V216.234C430.097 221.699 434.532 226.145 439.985 226.145C445.437 226.145 449.873 221.699 449.873 216.234V188.854C449.873 180.982 453.602 176.636 460.396 176.636C467.049 176.636 470.553 180.854 470.553 188.854V216.234C470.553 221.699 474.988 226.145 480.44 226.145C485.893 226.145 490.328 221.699 490.328 216.234V183.106C490.314 167.702 481.895 158.5 467.784 158.5ZM524.57 158.981C516.518 158.981 510.133 160.029 503.876 162.379C500.627 163.597 498.451 166.74 498.451 170.194C498.451 174.809 502.11 178.42 506.786 178.42C507.746 178.42 508.551 178.278 509.653 177.91C513.453 176.721 517.464 176.154 521.942 176.154C532.565 176.154 534.825 182.03 534.853 186.999C531.166 185.796 526.519 184.692 520.035 184.692C503.141 184.692 493.451 192.436 493.451 205.956V206.197C493.451 218.415 502.604 226.626 516.221 226.626C523.892 226.626 530.036 224.29 534.938 219.505C535.771 223.002 539.119 226.159 544.261 226.159C549.671 226.159 553.909 221.969 553.909 216.617V187.41C553.909 178.221 551.507 171.143 546.747 166.386C541.831 161.473 534.373 158.981 524.57 158.981ZM521.702 212.426C516.094 212.426 512.619 209.765 512.619 205.475V205.234C512.619 200.123 516.885 197.207 524.33 197.207C528.143 197.207 531.943 197.957 535.093 199.316V202.02C535.093 208.137 529.584 212.426 521.702 212.426ZM580.408 167.49C585.522 161.445 591.822 158.5 599.619 158.5C614.493 158.5 629.537 170.152 629.537 192.436V192.677C629.537 202.941 626.387 211.634 620.44 217.835C615.002 223.512 607.614 226.627 599.619 226.627C591.921 226.627 585.804 223.994 580.507 218.387V235.376C580.507 240.841 576.072 245.287 570.619 245.287C565.167 245.287 560.731 240.841 560.731 235.376V168.892C560.731 163.427 565.167 158.982 570.619 158.982C575.606 158.982 579.73 162.691 580.408 167.49ZM609.775 192.436C609.775 182.823 603.405 175.56 594.958 175.56C586.454 175.56 580.267 182.653 580.267 192.436V192.677C580.267 202.46 586.44 209.553 594.958 209.553C603.546 209.553 609.775 202.46 609.775 192.677V192.436ZM672.987 158.5C665.19 158.5 658.89 161.445 653.776 167.49C653.098 162.691 648.974 158.982 643.987 158.982C638.535 158.982 634.099 163.427 634.099 168.892V235.376C634.099 240.841 638.535 245.287 643.987 245.287C649.44 245.287 653.875 240.841 653.875 235.376V218.387C659.172 223.994 665.289 226.627 672.987 226.627C680.982 226.627 688.37 223.512 693.809 217.835C699.755 211.634 702.905 202.941 702.905 192.677V192.436C702.905 170.152 687.862 158.5 672.987 158.5ZM668.326 175.56C676.773 175.56 683.144 182.823 683.144 192.436V192.677C683.144 202.46 676.914 209.553 668.326 209.553C659.808 209.553 653.635 202.46 653.635 192.677V192.436C653.635 182.653 659.822 175.56 668.326 175.56ZM747.02 166.457C748.856 161.558 752.134 158.981 756.498 158.981C761.767 158.981 765.906 163.016 765.892 168.141C765.892 169.628 765.412 171.78 764.988 172.771L742.683 226.457C737.076 240.062 731.228 244.89 720.337 244.89C716.495 244.89 713.542 244.38 710.152 243.163C707.821 242.313 703.894 240.105 703.894 234.866C703.894 229.713 707.949 226.641 711.861 226.641C713.415 226.641 714.347 226.91 715.096 227.165C716.636 227.646 717.483 227.844 718.656 227.844C721.622 227.844 722.865 227.363 724.363 224.489L724.815 223.413L703.118 173.026C702.623 171.78 702.1 169.854 702.1 168.509C702.1 163.073 706.296 158.967 711.861 158.967C716.452 158.967 719.56 161.374 721.34 166.329L734.406 201.539L747.02 166.457Z" fill="white"/>
<path d="M375.78 149.617V207.525C375.78 230.509 357.075 249.143 334.004 249.143H329.778L308.2 270.625C307.355 271.467 306.186 272 304.89 272C303.693 272 302.608 271.565 301.777 270.835L301.411 270.471L301.397 270.457L280.002 249.143H275.762C252.705 249.143 234 230.509 234 207.525V149.617C234 126.634 252.705 108 275.776 108H334.004C357.075 108 375.78 126.634 375.78 149.617Z" fill="#FFD666"/>
<path d="M267.011 188.22C262.898 188.22 260.554 192.889 262.94 196.26C272.219 209.392 287.561 217.954 304.897 217.954C322.233 217.954 337.562 209.378 346.84 196.26C349.227 192.889 346.882 188.22 342.769 188.22H267.011Z" fill="white"/>
<path d="M291.1 168.347H266.282V155.878C266.282 148.995 271.841 143.409 278.691 143.409C285.541 143.409 291.1 148.995 291.1 155.878V168.347Z" fill="white"/>
<path d="M343.515 168.347H318.697V155.878C318.697 148.995 324.256 143.409 331.106 143.409C337.956 143.409 343.515 148.995 343.515 155.878V168.347Z" fill="white"/>
<defs>
<linearGradient id="paint0_linear" x1="1000" y1="381" x2="870.908" y2="-195.14" gradientUnits="userSpaceOnUse">
<stop stop-color="#29B6D1"/>
<stop offset="1" stop-color="#00C7C7"/>
</linearGradient>
</defs>
</svg>
